<?xml version="1.0" encoding="UTF-8"?>
<svg id="Layer_1" data-name="Layer 1" xmlns="http://www.w3.org/2000/svg" viewBox="0 0 500 500">
  <defs>
    <style>
      .cls-1 {
        stroke: #000;
        stroke-miterlimit: 10;
        stroke-width: 2px;
      }
    </style>
  </defs>
  <path class="cls-1" d="M32.78,368.89c6.25-7.28,17.61,0,24.12-.84.71-.09,12.06-5.01,13.15-5.58,1.68-.87,3.55-3.6,6.03-4.32,1.62-55.43,8.92-111.8,21.58-165.72,6.73-28.63,15.75-57.74,34.39-80.98,17.28-21.55,42.67-35.89,69.46-42.09-1.85-10.07,9.84-25.05,19.8-16.91,1.78,1.45,1.92,4.45,5.23,4.28,2.85-.15,5.69-4.47,8.78-5.72,9.27-3.76,12.47,6.08,14.93,5.65,2-1.39,3.27-3.58,5.35-4.89,9.63-6.03,13.26,5.51,18.49,4.97,2.52-.26,3.08-3.22,4.91-4.56,10.13-7.41,21.09,7.31,19.38,17.19,26.86,6.16,52.15,20.51,69.46,42.09,24.61,30.68,33.14,72.69,40.48,110.53,8.7,44.87,14.64,90.36,15.5,136.18,2.48.72,4.35,3.45,6.03,4.32,1.01.53,11.81,5.24,12.47,5.41,4.39,1.07,24.92-7.07,24.88,3.13-.02,4.5-7.31,8.05-7.74,11.08-.79,5.45,7.18,7.65,5.84,12.49-1.57,5.67-11.24,3.3-13.11,5.67-.21,4.98,5.01,10.99-.94,14.33-4.44,1.32-9.42-5.01-13.21-3.99-4.02,1.09-5.66,10.92-12.06,10.95-9,.04-7.84-17.38-10.18-22.1-.7-1.41-9.13-6.74-9.75-5.94,4.85,13.19,2.13,28.95-9.32,37.77-20.57,15.84-94.7,17.41-121.79,18.18-41.88,1.2-84.62.88-126.25-5.18-14.95-2.17-40.96-5.79-50.58-18.14-7.51-9.64-8.1-21.31-4.27-32.64-.62-.81-9.05,4.53-9.75,5.94-2.34,4.72-1.18,22.14-10.18,22.1-6.41-.03-8.04-9.85-12.06-10.95-3.97-1.08-9.26,5.94-13.81,3.71-5.46-2.68.94-12.42-.34-14.05-3.31-2.29-11.71-.53-12.89-4.99-1.64-6.18,6.46-7.44,5.63-13.16-.31-2.17-6.17-6.76-7.66-8.95v-4.24ZM294.08,92.33c-1.14,1.52,4.35,11.57-5.14,8.94-2.29-1.53-1.88-14.65-1.55-17.75.85-8.06,6.89-14.98,2.14-22.7-5.21-8.46-6.77-1-11.27,1.69-7.43,4.43-11.39-1.95-17-5.7-1.79-.27-5.24,5.74-8.5,6.49-7.04,1.62-9.01-2.55-13.52-6.52-3.14-.54-8.36,11.22-17.57,5.72-4.5-2.68-6.07-10.15-11.27-1.69-4.62,7.5,1.46,15.28,2.23,23.46.32,3.41,1.24,17.96-3.81,17.93-5.55-.03-2.6-6.94-3.38-9.88-17.38,12.99-33.66,28.51-46.08,46.39-42.04,60.5-19.39,122.59-33.51,189.61-5.62,26.68-15.14,42.84-24.76,66.86-11.86,29.6,15.14,36.46,37.57,40.47,57.61,10.3,138.18,9.89,196.56,3.63,22.73-2.44,73.97-5.02,65.34-39.02-2.76-10.87-12.45-26.46-16.78-38.36-8.38-23.05-13.5-47.76-15.08-72.3-1.94-30.31,1.55-61.33-3.63-91.39-7.52-43.7-34.82-81.29-70.98-105.89ZM204.14,76.21c-40.52,7.44-70.67,35.55-86.08,72.99-14.29,34.74-21.98,81.08-27.46,118.46-4.22,28.82-9.9,71.47-7.81,100,.07.99.4,4.14,1.01,4.51,2.63,1.6,5.33.24,5.73-2.91,1.32-10.31.27-23.32.9-33.9,3.02-50.22,11.66-110.97,25.73-159.21,13.55-46.45,38.64-83.1,88.84-93.14l-.86-6.79ZM416.11,372.16c.74-1.41.89-2.94,1.01-4.51,2.08-28.46-3.6-71.23-7.81-100-5.48-37.36-13.17-83.74-27.46-118.46-15.38-37.38-45.66-65.67-86.06-72.96l-.88,6.76c50.11,9.97,75.32,46.78,88.84,93.14,14.19,48.65,22.73,109.41,25.73,160.06.27,4.63.24,35.03,1.78,35.97h4.85ZM191.42,94.03c-58.26,20.08-70.14,83.08-80.33,136.42-8,41.91-13.3,84.12-14.49,126.89,2.96,3.71,7.99,5.57,9.14,10.7l3.4-7.19c28.29-63.46,2.1-136.4,29.53-199.52,11.55-26.59,31.32-48.33,52.74-67.29ZM394.16,368.03c1.13-5.06,6.05-6.94,8.99-10.56-.9-42.75-6.36-85.12-14.34-127.02-9.94-52.15-22-116.63-79.47-135.57l22.07,20.75c67.31,74.36,28.47,150.69,56.43,237.1l6.32,15.3ZM65.86,371.43c-11.25,3.68-7.86,19.77,2.52,22.51,1.86.49,13.12.75,11.06-1.29-9.14-2.17-15.01-11.96-13.58-21.21ZM437.15,390.65c6-5.59,5.21-16.3-3.1-19.21,1.26,9.76-4.47,18.37-13.57,21.62,4.73,2.95,12.66,1.32,16.67-2.41ZM53.14,373.98l-10.18-.85c4.81,5.97,7.55,12.35.86,18.23,2.34,2.11,6.2,1.02,8.51,3.59,2.63,2.93,2.66,6.82,1.66,10.4,9.8-4.89,14.85,1.35,20.35,8.49l2.55-12.72c-15.37,2.78-29.78-11.64-23.75-27.14ZM456.95,373.14l-10.18.85c5.88,15.31-8.42,30.05-23.75,27.14l2.55,12.72c5.49-7.14,10.54-13.37,20.35-8.49-1.33-3.34-.78-7.68,1.66-10.4,2.31-2.57,6.17-1.48,8.5-3.59-6.49-5.6-4.17-12.59.86-18.23Z"/>
  <path class="cls-1" d="M247.24,206.26c86.42-3.4,91,128.25,5.72,132.12-86.11,3.91-91.97-128.72-5.72-132.12ZM240.42,213.86c-21.32,2.68-41.27,21.79-46.87,42.21-14.07,51.35,40.86,94.42,86.88,66.52,53.62-32.52,25.4-116.96-40.01-108.73Z"/>
  <path class="cls-1" d="M225.16,153.2c-1.96,2.02-6.01,1.49-5.75-2.71.32-5.15,5.85-17.38,7.23-24.22,1.24-6.14,2.42-12.39,2.1-18.67-3.73,2.47-13.76,17.92-18.66,14.88-.78-.48-1.6-2.33-1.51-3.3.3-3.13,17.66-17.12,19.79-24.27,1.77-5.94-3.82-25.08-1.37-26.82,5.61-3.99,6.91,7.51,7.43,10.5,3.61,20.97,1.98,43.22-4.79,63.39-.51,1.52-4.05,10.78-4.47,11.22Z"/>
  <path class="cls-1" d="M266.93,101.66c-1.92,7.68,4.61,22.9,3.4,29.25-.55,2.9-4.35,2.95-6.02.93-3.62-4.36-4.65-34.27-4.21-40.82.23-3.52,2.76-21.7,5.11-22.88.67-.34,1.38-.48,2.14-.49,6.35-.03.56,13.37.4,17.51-.22,5.8,8.11,17.2,11.71,22.2,2,2.78,12.03,13.9,11.88,15.79-.26,3.1-3.82,4.18-6.24,2.32l-18.17-23.81Z"/>
</svg>