<?xml version="1.0" encoding="UTF-8"?>
<svg id="Layer_1" data-name="Layer 1" xmlns="http://www.w3.org/2000/svg" viewBox="0 0 500 500">
  <path d="M263.28,449.7c-8.51.39-18.85.41-27.35,0-22.24-1.06-46.51-5.15-68.14-11.15-19.54-5.42-34.5-10.87-37.36-33.71l-.1-144.34-66.56-38.89c-2.93-2.48-3.44-6.57-2.49-10.08,16.71-48.23,12.82-104.51,63.19-132.04,16.15-8.83,36.93-18.29,53.91-25.77,1.93-.85,5.97-2.99,7.53-3.4,5.11-1.33,20.09,4.95,26.43,6.43,34.26,7.98,66.76,3.93,99.68-6.76,43.69,21.88,89.47,29.61,105.74,81.77,8.15,26.14,13.2,54.08,21.11,80.39.54,4.12.64,6.57-2.65,9.44l-66.56,38.89-.09,144.34c-2.85,22.92-17.81,28.32-37.36,33.71-21.99,6.06-46.33,10.11-68.92,11.15ZM130.46,240.46v-39.43c0-.88,3.01-4.04,4.11-4.48,4.9-1.99,11.08-.29,12.25,5.31l.02,200.63c.53,16.39,21.66,19.43,34.54,22.48,43.2,10.22,89.34,10.43,132.7.93,15-3.29,39.55-6.12,39.09-25.74v-198.29c1.36-5.86,8.5-8.15,13.24-4.72.73.53,3.13,4.21,3.13,4.67v38.65l51.62-29.42-21.55-81.43c-11.07-30.31-43.55-41.24-70.42-53.77-1.91-.89-10.35-4.93-11.6-4.8-9.3,48.13-63.9,71.79-105.66,44.69-14.71-9.54-27-27.16-29.13-44.68-.54-.56-9.89,3.83-11.46,4.55-27.33,12.63-60.72,24.06-71.37,55.17l-21.12,80.27,51.6,29.44ZM300.78,71.05c-7.37.78-14.41,3.26-21.71,4.45-27.43,4.48-53.06,2.24-79.86-4.45,9.83,36.48,52.96,51.83,83.18,28.07,9.18-7.22,15.2-16.78,18.39-28.07Z"/>
</svg>