<?xml version="1.0" encoding="UTF-8"?>
<svg id="Layer_1" data-name="Layer 1" xmlns="http://www.w3.org/2000/svg" viewBox="0 0 500 500">
  <path d="M82.59,400.71c-14.82-1.25-26.51-12.69-28.55-27.93l-.04-244.13c1.24-16.03,13.54-28.35,29.32-29.35l334.85.05c13.43,1.22,26.1,13.38,27.83,26.7v247.79c-2.85,14.7-13.75,25.19-27.88,26.83l-335.54.04ZM69.47,372.26c0,4.8,6.94,11.7,11.3,12.41l.32.05h337.76c4.83-.28,11.72-8.3,11.72-12.46v-205.94H69.47v205.94ZM80.77,115.34c-4.36.71-11.3,7.61-11.3,12.41v23.14h361.1v-23.14c0-4.8-6.94-11.7-11.3-12.41l-.32-.05H81.09l-.32.05Z"/>
  <path d="M360.49,303.07c-5.4,0-10.77-1.6-15.98-4.77-6-3.65-12.73-12.55-12.75-18.99,0-2.7,1.16-4.68,3.68-6.23,1.33-.82,2.71-1.23,4.12-1.23,2.34,0,4.47,1.15,5.99,3.24.46.63.84,1.46,1.27,2.42.69,1.51,1.46,3.22,2.86,4.84,2.85,3.29,6.56,5.1,10.44,5.1,4.88,0,9.46-2.77,11.97-7.23,2.5-4.45,2.37-9.78-.35-14.27-3.04-5.01-7.78-5.66-11.23-6.12-1.81-.25-3.37-.46-4.51-1.15-2.04-1.23-3.35-3.52-3.51-6.12-.15-2.57.86-4.96,2.71-6.4,1.34-1.04,3.19-1.38,5.33-1.78,3.64-.67,8.17-1.51,11.18-6.31,2.78-4.42,2.98-9.71.53-14.14-2.48-4.49-7.1-7.28-12.06-7.28-3.16,0-6.22,1.15-8.85,3.32-1.71,1.42-2.77,3.12-3.7,4.63-.62,1-1.2,1.94-1.76,2.39-1.52,1.25-3.22,1.88-5.05,1.88-2.4,0-4.76-1.13-6.31-3.04-1.04-1.27-2.14-3.43-1.52-6.45,1.84-8.88,15.48-17.6,24.94-18.26.76-.05,1.52-.08,2.27-.08,11.28,0,20.98,6.08,25.97,16.26,5.16,10.54,3.86,22.89-3.39,32.23l-1.9,2.44,1.89,2.45c7.46,9.67,8.75,21.28,3.56,31.85-5.02,10.22-15.17,16.82-25.84,16.82h0Z"/>
  <path d="M271.04,302.95c-1.35,0-2.73-.16-4.2-.32-1.61-.18-3.43-.39-5.43-.41-.36,0-.73,0-1.1,0-3.25,0-6.79.13-10.53.26-3.84.14-7.81.28-11.53.28-4.09,0-7.32-.17-9.87-.54-2.93-.41-4.39-2.61-5-3.89-1.21-2.54-1.13-5.51.22-7.75,4.52-7.39,10.33-14.96,15.94-22.28,6.79-8.86,13.82-18.03,18.99-27.35,3.22-5.8,4.12-11.41,2.53-15.78-.87-2.4-2.95-5.66-7.89-7.55-2.25-.86-4.25-1.28-6.13-1.28-7.32,0-10.01,6.08-11.97,10.51-.44.99-.85,1.92-1.29,2.78-1.46,2.84-3.99,4.47-6.96,4.47-2.35,0-4.56-1.07-5.92-2.86-1.69-2.22-2.03-5.35-1-9.07,4.02-14.47,17.04-20.94,28.17-20.94s19.83,5.23,25.21,14.35c10.73,18.2-.86,33.73-13.12,50.18-3.67,4.91-7.46,9.99-10.44,15.01l-3.44,5.8,29.32,1.07c3.58.96,5.08,4.11,5.29,6.78.21,2.71-.84,6.11-4.41,7.51-1.83.72-3.5,1.04-5.42,1.04Z"/>
  <path d="M148.51,302.15c-1.37,0-2.78-.43-4.17-1.29-.88-.61-3.12-3.45-3.59-4.69v-79.07h-22.37c-.92-.57-2.6-1.91-3.04-2.42-1.58-2.1-2.1-4.74-1.38-7.19.68-2.29,2.33-4.03,4.67-4.88,1.72-.63,8.09-1.31,18.02-1.31,5.23,0,10.03.21,12.22.52,3.38.49,5.72,2.38,7.15,5.76v88.74c-1.52,3.56-4.4,5.82-7.49,5.82Z"/>
  <path d="M107.38,349.86c-4.34-1.61-5.61-5.16-5.33-8.03.29-2.9,2.37-6.47,7.29-7.15,2.68.16,5.53.24,8.72.24,6,0,12.29-.29,18.38-.57,6.04-.28,12.29-.56,18.2-.56,5.38,0,9.95.24,13.97.73,5.64.69,8.02,4.12,8.37,7.11.32,2.76-.97,6.3-5.48,8.23h-64.11Z"/>
  <path d="M328.45,349.86c-4.34-1.61-5.61-5.16-5.33-8.03.29-2.9,2.37-6.47,7.29-7.15,2.68.16,5.53.24,8.72.24,6,0,12.29-.29,18.38-.57,6.04-.28,12.29-.56,18.2-.56,5.38,0,9.95.24,13.97.73,5.64.69,8.02,4.12,8.37,7.11.32,2.76-.97,6.3-5.48,8.23h-64.11Z"/>
  <path d="M219.8,349.85c-4.49-1.46-5.91-4.96-5.73-7.82.18-2.87,2.14-6.46,7.04-7.34,2.67.17,5.53.25,8.73.25,5.95,0,12.22-.29,18.28-.58,6.03-.28,12.27-.58,18.16-.58s10.48.28,14.63.84c5.59.76,7.87,4.44,8.11,7.36.23,2.75-1.17,6.21-5.73,7.86h-63.5Z"/>
</svg>