<?xml version="1.0" encoding="UTF-8"?>
<svg id="Layer_1" data-name="Layer 1" xmlns="http://www.w3.org/2000/svg" viewBox="0 0 500 500">
  <path d="M205.46,50l3.46,2.4,40.7,55.42,41.47-55.42,3.46-2.4h82.84c3.75,2.13,6.21,4.92,5.3,9.58l-84.91,116.74c-1.93,10.56-.52,22.14-.76,32.98,75.79,30.5,102.47,125.84,52.55,191.53-52.16,68.64-157.27,64.72-204.31-7.34-43.11-66.03-14.65-155.04,57.72-184.19-.24-10.84,1.17-22.39-.76-32.98L117.31,59.58c-.9-4.65,1.55-7.45,5.3-9.58h82.84ZM273.44,167.22l-74.63-101.59h-58.22l74.63,101.59h58.22ZM359.41,65.63h-58.22l-41.02,55.86,29.22,39.46,70.02-95.31ZM281.26,182.85h-62.52v21.1c20.57-5.25,41.97-5.25,62.52,0v-21.1ZM242.03,215.91c-85.95,6.27-131.87,106.55-79.1,175.54,48.14,62.92,145.71,55.34,183.33-14.26,41.08-75.99-18.56-167.53-104.23-161.28Z"/>
  <path d="M242.03,231.54c75.31-6.2,127.02,74.93,89.09,140.67-38.2,66.21-136.27,60.46-166.98-9.34-25.84-58.73,14.22-126.1,77.88-131.34ZM242.81,247.17c-54.17,4.84-87.08,63.43-62.92,112.47,27.17,55.16,105.87,58.66,137.17,5.54,32.52-55.19-10.77-123.68-74.25-118.01Z"/>
  <path d="M247.43,272.89c2.89-.66,6.51-.39,8.38,2.22l14.19,27.23c8.65,2.55,19.17,2.15,27.71,4.33,5.95,1.52,9.06,6.46,5.78,12.12l-21.34,21.7,4.64,28.74c-2.68,19.72-26.81-3.07-36.53-5.68l-27.41,13.71c-18.06,3.19-4.19-28.08-5.01-36.77l-21.34-21.7c-9.86-15.69,26.62-13.13,33.5-16.45,2.54-1.59,9.81-19.92,12.04-23.91,1.22-2.18,2.8-4.95,5.39-5.55ZM250.77,298.52c-1.83-.4-1.25.26-1.74,1.01-2.95,4.5-4.65,14.02-9.56,16.98-3.63,2.19-18.41,2.49-19.16,3.11-.29,1.26.43,1.6,1.14,2.36,3.34,3.6,11.8,8.69,12.76,13.85.72,3.86-3.59,18.96-2.96,19.73,5.51-1.85,12.68-8.49,18.35-8.67,6.02-.19,13.52,6.55,19.15,8.67.63-.77-3.68-15.87-2.96-19.73,1.06-5.66,9.51-9.81,12.75-13.86.63-.79,1.49-1.03,1.16-2.35-.75-.62-15.53-.92-19.16-3.11-4.51-2.72-7.59-13.22-9.76-17.99Z"/>
</svg>