<?xml version="1.0" encoding="UTF-8"?>
<svg id="Layer_1" data-name="Layer 1" xmlns="http://www.w3.org/2000/svg" viewBox="0 0 500 500">
  <path d="M238.72,50.56c17.13-1.58,45.81-.95,53.41,17.91,5.21,12.93,1.8,32.84,1.91,46.74,10.08,5.9,19.93,12.09,27.33,21.33,25.9,32.39,8.77,92.7,6.85,131.15-2.26,45.39,6.04,93.89,7.12,139.45-1.05,19-11.78,39.39-32.35,41.9-33.88-1.82-70.9,2.76-104.42.13-24.38-1.92-33.58-25.51-33.08-46.7,1.04-44.03,8.55-91.21,6.38-134.78-1.73-34.82-15.4-86.51-.68-118.74,7.1-15.55,20.04-24.95,34.05-33.75,1.9-16.52-4.92-42.78,8.51-55.3,6.03-5.62,16.92-8.6,24.95-9.34ZM281.16,112.54v-34.7c0-4.19-4.23-8.67-7.81-10.54-10.01-5.23-35.31-5.12-45.64-.63-3.9,1.7-8.77,6.77-8.77,11.17v33.9c20.67-3.32,41.66-3.36,62.21.8ZM178.27,200.27h142.38l1.2-1.2v-25.52c0-16.86-14.13-36.36-28.96-43.62-18.25-8.93-61.24-9.24-80.29-2.62-17.32,6.01-34.32,27.55-34.32,46.24v26.72ZM320.25,213.83h-140.38c1.4,26.48,7.02,52.69,5.62,79.4l-4.82,75.34h138.79l-4.82-75.34c-1.4-26.71,4.22-52.92,5.62-79.4ZM320.25,382.13h-140.38c.15,10.76-2.94,22.31-.58,32.88,1.95,8.73,8.88,19.48,18.52,20.56,11.64,1.31,27.7-.1,39.92-.04,21.42.12,42.99.26,64.58.03,23.92-6.56,19.42-34.24,17.94-53.44Z"/>
  <path d="M248.24,242.7c6.11-1.35,14.41,9.71,18.18,14.19,15.82,18.79,32.28,42.13,13.56,65.43-16.72,20.81-49.86,18.42-63.03-4.78-13.02-22.93,1.8-42.76,16.39-60.21,2.47-2.95,11.95-13.97,14.91-14.62ZM249.77,259.36c-9.14,10.29-25.59,27.3-24.47,41.85,1.91,24.72,37.82,30.37,47.71,6.96,4.36-10.32.79-17.48-4.59-26.16-1.99-3.22-16.39-23.05-18.65-22.66Z"/>
</svg>