<?xml version="1.0" encoding="UTF-8"?>
<svg id="Layer_1" data-name="Layer 1" xmlns="http://www.w3.org/2000/svg" viewBox="0 0 500 500">
  <defs>
    <style>
      .cls-1 {
        stroke: #000;
        stroke-miterlimit: 10;
        stroke-width: 3px;
      }
    </style>
  </defs>
  <path class="cls-1" d="M50,394.41l4.25-2.39,37.91.05V86.42c0-14.06,16.86-29.71,30.85-30.05l272.36.08c12.34,1.68,23.34,9.72,27.62,21.56,3.59,9.92,3.5,36.34,2.56,47.47-.17,2-.96,6.61-3.54,6.61h-55.04v59.33l80.04,31.21c.97.8,1.68,1.44,1.92,2.76.37,2.03.65,6.98.79,9.36,3.71,64.28-29.77,123.19-82.35,158.09-1.24,9.16.87,18.2-1.74,27.15-3.8,13.04-16.77,22.77-30.25,23.62l-254.53-.04c-11.06-1.21-20.42-7.31-26.32-16.62l-4.54-12.25v-20.3ZM367.75,65.73H122.22c-8.06,0-20.69,12.61-20.69,20.69v305.65h204.94c.51,0,2.52,2.51,2.72,3.53,1.78,9.32-2.38,16.2,3.29,26.38,11.25,20.2,42.77,13.37,45.13-8.43.4-3.68.62-17.05-.02-20.29-.16-.83-.39-1.5-1.13-1.99-51.74-35.27-83.94-93.66-80.08-157.32.15-2.47.73-9.06,1.92-10.57l79.21-31.26.11-103.34c.8-8.71,4.47-16.52,10.14-23.04ZM416.16,122.72v-33.96c0-16.15-18.97-27.32-33.8-21.31-7.1,2.88-15.39,12.69-15.39,20.52v34.74h49.19ZM362.1,200.16l-74.74,29.16c-1.21,1.06-1.43,2.35-1.6,3.86-5,43.01,15.63,92.33,44.49,123.39,3.88,4.18,29.44,27.89,33.08,27.54,43.29-28.84,74.11-77.11,77.01-129.84.24-4.39.92-23.19-2.01-25.3l-73.09-28.43c-1.04-.48-2.03-.51-3.15-.38ZM299.83,401.44H59.37v12.1c0,8.08,12.63,20.69,20.69,20.69h229.92c-1.9-2.61-4.3-4.92-5.88-7.78-1.24-2.24-4.27-9.95-4.27-12.13v-12.88Z"/>
  <path class="cls-1" d="M225.5,101.09c55.69-5.66,62.33,79.87,6.79,83.29-53.41,3.29-60.32-77.85-6.79-83.29ZM226.27,110.45c-44.87,4.9-33.04,74.84,11.92,63.44,37.46-9.49,27.63-67.76-11.92-63.44Z"/>
  <path class="cls-1" d="M287.13,333.72c2.29,2.42.29,7.74-3.26,7.65h-140.6c-7.37.41-6.82-9.09.02-9.43l138.24-.02c1.48,0,4.67.81,5.61,1.8Z"/>
  <path class="cls-1" d="M141.12,292.3l124.77-.18c6.47.09,7.09,8.62.8,9.43h-124.22c-5.15-.61-5.98-7.01-1.36-9.24Z"/>
  <path class="cls-1" d="M141.13,212.68l119.29-.19,3.49,1.19c2.83,3.65.18,8.02-4.27,8.21h-116.36c-4.47-.52-5.84-2.92-4.93-7.31l2.78-1.9Z"/>
  <path class="cls-1" d="M262.95,253.29c2.39,2.4.79,8.62-3.29,8.44h-117.19c-6.17-.7-5.8-10.3.79-9.44,37.4,2.43,78.67-3.12,115.61,0,1.21.1,3.22.14,4.08,1Z"/>
  <path class="cls-1" d="M356.66,233.03c68.53-7.44,75.2,94.83,9.13,98.91-63.17,3.89-70.94-92.2-9.13-98.91ZM357.43,242.39c-49.55,5.99-43.27,82.7,7.58,80.18,53.65-2.65,48.71-86.99-7.58-80.18Z"/>
  <path class="cls-1" d="M234.25,147.71c-.99,4.97,3.01,18.24-4.35,18.73-7.88.52-4.22-14-5.02-18.73h-13.66c-.22,0-3.95-1.58-4.11-1.74-1.81-1.76-.98-7.63,1.77-7.63h16c.76-4.75-3.13-22,6.27-19.19,6.16,1.84,1.21,14.16,3.83,18.85,1.75,1.22,12.08-.26,15.26.36,5.21,1.01,3.22,9.35-1.54,9.35h-14.44Z"/>
  <path class="cls-1" d="M383.16,264.17c4.35-.91,6.88,2.93,5.27,6.88l-30.02,29.37c-1.78.74-2.94-.28-4.31-1.26-2.01-1.42-16.26-15.93-16.87-17.55-1.03-2.73.51-5.74,3.59-5.94,5.45-.34,12.1,10.18,16.4,13.33,1.8,0,21.43-23.89,25.94-24.83Z"/>
</svg>