<?xml version="1.0" encoding="UTF-8"?>
<svg id="Layer_1" data-name="Layer 1" xmlns="http://www.w3.org/2000/svg" viewBox="0 0 500 500">
  <path d="M325.82,148.55h19.14c.26-7.03,5.59-15.71,12.81-17.2,4.6-.95,36.86-.8,40.98.39,6.74,1.95,12.28,10.69,11.5,17.64,20.43,2.42,36.34,18.93,39.75,38.98v189.21c-3.5,19.22-18,34.4-36.99,38.7-105.87,2.6-212.17.34-318.21,1.14-22.88-1.69-41.4-18.61-44.76-41.37l-.04-185.33c2.12-20.79,19-39.07,40.01-41.33-.85-7.12,5.16-16.23,12.16-17.85,4.43-1.03,36.78-1.07,40.98.03,6.77,1.78,11.86,10.27,12.15,16.99h19.14v-46.54c0-.37,2.3-5.93,2.76-6.81,3.58-6.73,10.36-10.76,17.77-11.81,35.06,1.82,73.1-2.74,107.82-.13,8.61.65,16.07,4.08,20.25,11.94.47.87,2.76,6.44,2.76,6.81v46.54ZM311.03,148.55v-44.8c0-1.62-5.07-6.29-7.38-5.67-34.19,2.38-72.5-3.09-106.2-.02-2.76.25-8.22,2.74-8.22,5.7v44.8h121.8ZM108.08,145.27c-.89.19-2.37.78-2.81,1.54-.83,1.41-.81,29.06-.43,32.64,1.33,12.45,14.09,19.44,25.44,14.11,6.84-3.21,9.71-10.39,10.27-17.57.31-3.99.64-26.16-.17-28.6-.58-1.73-3.01-2.15-4.63-2.33-4.79-.55-23.4-.72-27.66.21ZM362.98,145.27c-.89.19-2.37.78-2.81,1.54-.79,1.33-.76,27.4-.42,30.89,1.28,12.9,13.15,21.77,25.56,16.01,15.99-7.43,8.49-32.27,9.96-46.31-.58-1.73-3.01-2.15-4.63-2.33-4.79-.55-23.4-.72-27.66.21ZM344.96,163.34h-189.66v17.83c0,4.43-4.86,13.88-7.81,17.42-14.11,16.96-41.61,15.27-52.94-3.66-.87-1.46-4.51-9.28-4.51-10.28v-20.44c-16.21,3.05-24.91,16.89-26.09,32.64-4.15,55.28,3.07,115.57,0,171.37.83,18.72,12.51,32.88,31.71,34.4h308.04c16.06-1.12,27.5-10.37,31.51-25.9-.6-57.83,4.48-119.71,1.12-177.31-1-17.09-8.13-31.46-26.14-35.19v19.57c0,12-17,25.12-28.37,26.44-15.58,1.81-36.88-11.66-36.88-28.18v-18.7Z"/>
  <path d="M91.53,222.69c4.25-1.27,8.33.36,9.81,4.62l.03,124.37c.3,9.04,6.92,15.45,16.04,15.28h265.42c8.69.19,15.48-5.83,15.95-14.5l.56-126.45c3.26-5.67,12.61-4.67,13.51,2.11v128.84c-1.48,11.17-10.09,20.51-20.88,23.5-91.01,2.94-182.5.39-273.69,1.3-15.76-1.01-27.31-7.93-30.85-23.96l-.04-129.68c-.16-1.88,2.53-4.95,4.14-5.42Z"/>
  <path d="M270.14,233.81h26.53c1.98,0,5.23,3.37,5.6,5.71,1.11,7.02.77,28.12.1,35.66-.28,3.16-2.04,7.35-5.7,7.35h-26.53v27.4c0,1.82-3.75,4.43-5.71,4.73-6.17.96-30.19.93-36.53.1-2.68-.35-6.48-4.14-6.48-6.57v-25.66h-26.53c-2.95,0-5.44-5.46-5.7-8.22-.65-7.15-.96-27.24.09-33.92.33-2.13,3.75-6.57,5.61-6.57h26.53v-25.66c0-2.44,3.8-6.22,6.48-6.57,6.34-.83,30.36-.87,36.53.1,1.95.31,5.71,2.92,5.71,4.73v27.4ZM255.35,216.41h-19.14v27.4c0,1.02-3.76,4.78-4.78,4.78h-27.4v19.14h27.4c1.02,0,4.78,3.76,4.78,4.78v27.4h19.14v-26.53c0-1.11,4.55-5.65,5.65-5.65h27.4v-19.14h-27.4c-1.11,0-5.65-4.55-5.65-5.65v-26.53Z"/>
  <path d="M213.33,116.54l72.88-.16c7.08,2.24,6.49,12.98-.8,13.95l-71.37-.07c-6.48-2.34-6.7-10.64-.71-13.72Z"/>
</svg>