<?xml version="1.0" encoding="UTF-8"?>
<svg id="Layer_1" data-name="Layer 1" xmlns="http://www.w3.org/2000/svg" viewBox="0 0 500 500">
  <path d="M256.65,155.67v27.46h99.68v-17.06c0-.49,2.25-5.47,2.79-6.36,7.93-13.16,26.36-13.18,34.3,0,.54.89,2.79,5.87,2.79,6.36v17.06h36.96c.49,0,5.46,2.25,6.35,2.79,6.11,3.69,9.34,9.68,9.88,16.73.77,9.97,1.24,34.61-.24,43.94-.84,5.34-5.47,11.34-10.15,13.96-.77.43-5.53,2.47-5.84,2.47h-36.96v26.63h36.96c.49,0,5.46,2.25,6.35,2.79,6.11,3.69,9.34,9.68,9.88,16.73.77,9.97,1.24,34.61-.24,43.94-.84,5.34-5.47,11.34-10.15,13.96-.77.43-5.53,2.47-5.84,2.47h-36.96v66.58c4.25.14,10.59-1.26,12.66,3.54,2.37,5.48-.89,9.32-6.39,9.82-17.28,1.58-37.13-1.11-54.68-.22-11-6.57-1.99-15.82,8.54-13.14v-66.58h-212.64v66.58c4.25.14,10.59-1.26,12.66,3.54,2.37,5.48-.89,9.32-6.39,9.82-17.28,1.58-37.13-1.11-54.68-.22-11-6.57-1.99-15.82,8.54-13.14v-66.58h-36.96c-.49,0-5.46-2.25-6.35-2.79-6.11-3.69-9.34-9.68-9.88-16.73-.77-9.97-1.24-34.61.24-43.94.84-5.34,5.47-11.34,10.15-13.96.77-.43,5.53-2.47,5.84-2.47h36.96v-26.63h-36.96c-.49,0-5.46-2.25-6.35-2.79-6.11-3.69-9.34-9.68-9.88-16.73-.77-9.97-1.24-34.61.24-43.94.84-5.34,5.47-11.34,10.15-13.96.77-.43,5.53-2.47,5.84-2.47h36.96v-17.06c0-.49,2.25-5.47,2.79-6.36,7.93-13.16,26.36-13.18,34.3,0,.54.89,2.79,5.87,2.79,6.36v17.06h99.68v-27.46c-39.91-4.69-60.06-50.19-36.39-83.49,23.98-33.73,75.58-27.86,91.93,9.95,13.98,32.32-7.44,70.02-42.24,73.54ZM244.83,63.52c-55.15,6.66-38.87,93.96,16.4,78.02,46.37-13.37,32.25-83.9-16.4-78.02ZM130.39,183.13v-15.4c0-5.8-13.29-5.8-13.29,0v15.4h13.29ZM382.9,183.13v-15.4c0-5.8-13.29-5.8-13.29,0v15.4h13.29ZM206.81,196.45H68.51c-2.2,0-4.33,4.06-4.59,6.22-1,8.56-1,32.26,0,40.82.52,4.48,2.79,5.88,7.04,6.26,25.61,2.34,54.68-1.87,80.66.01l3.32-.84,51.87-52.48ZM326.42,196.45h-100.09l-52.75,53.26h100.09l52.75-53.26ZM293.19,249.71h138.3c2.2,0,4.33-4.06,4.59-6.22,1-8.56,1-32.26,0-40.82-.52-4.48-2.79-5.88-7.04-6.26-25.61-2.34-54.68,1.87-80.66-.01l-3.32.84-51.87,52.48ZM130.39,263.03h-13.29v26.63h13.29v-26.63ZM356.32,263.03h-212.64v26.63h212.64v-26.63ZM382.9,263.03h-13.29v26.63h13.29v-26.63ZM206.81,302.98H68.51c-2.2,0-4.33,4.06-4.59,6.22-1,8.56-1,32.26,0,40.82.52,4.48,2.79,5.88,7.04,6.26,25.61,2.34,54.68-1.87,80.66.01l3.32-.84,51.87-52.48ZM326.42,302.98h-100.09l-52.75,53.26h100.09l52.75-53.26ZM293.19,356.24h138.3c2.2,0,4.33-4.06,4.59-6.22,1-8.56,1-32.26,0-40.82-.52-4.48-2.79-5.88-7.04-6.26-25.61-2.34-54.68,1.87-80.66-.01l-3.32.84-51.87,52.48ZM130.39,369.56h-13.29v66.58h13.29v-66.58ZM382.9,369.56h-13.29v66.58h13.29v-66.58Z"/>
  <path d="M228.17,96.75l42.97-.13c7.36,1.16,7.33,12.07,0,13.22-6.54,1.02-35.72,1.02-42.26,0-7.01-1.1-7.45-11.11-.7-13.09Z"/>
</svg>