<?xml version="1.0" encoding="UTF-8"?>
<svg id="Layer_1" data-name="Layer 1" xmlns="http://www.w3.org/2000/svg" viewBox="0 0 500 500">
  <path d="M50,288.2c2.94-21.68,14.97-39.08,33.51-50.3-39.06-21.98-44.66-75.9-9.72-104.85,29.35-24.31,74.4-16.72,94.23,15.63,16.78,27.38,10.62,60.1-12.02,81.8,27.99,1.19,54.45-19.92,59.79-47.4,2.33-11.99-.49-21.27,7.7-32.06,16.49-21.72,51.79-14.41,57.79,12.23,1.16,5.15.51,9.62,1.1,14.5,3.63,30.08,29.89,53.59,60.3,52.74l-12.48-16.36c-32.01-55.84,29.08-118.2,85.38-87.75,43.63,23.6,43.73,87.94-.01,111.14,3.35,3.4,7.96,5.65,11.7,8.94,12.61,11.09,20.72,27.59,21.85,44.42,2.83,42.29-2.21,87.67,0,130.29-.14,4.62-2.75,7.61-7.43,8.17l-107.21-.39c-2.65-.88-4.18-2.41-5.07-5.07l-.48-128.56c-22.55-2.91-44.07-11.09-62.18-24.74-6.15-4.63-11.42-10.37-17.5-15.08-21.13,21.92-48.64,36.2-79.11,39.82l-.48,128.56c-.88,2.66-2.42,4.19-5.07,5.07l-107.21.39c-4.02-.48-5.42-2.3-7.39-5.48v-135.67ZM147.94,216.19c17.39-17.25,18.76-45.66,3.01-64.45-32.8-39.14-95.62-7.25-83.24,42.73,8.77,35.42,54.46,47.28,80.23,21.73ZM351.14,216.19c46.58,46.18,114.99-28.31,64.79-70.66-46.4-39.13-107.69,28.12-64.79,70.66ZM154.45,296h-20.66c-.42,0-4.14-1.81-4.7-2.31-4.57-4.1-1.92-12.51,4.68-13.3,10.86-1.29,23.47.52,35.09-.77,52.13-5.79,100.89-54.59,97.86-108.79-1.22-21.75-31.2-22.57-34.12-2.11-3.13,21.94-2.88,33.72-18.51,51.66-30.59,35.1-63,22.58-102.89,25.73-20.89,1.65-45.61,20.98-45.61,43.26v124.37h88.86v-117.74ZM433.49,413.74v-124.37c0-5.87-5.57-18-9.02-22.95-23.58-33.82-70.39-13.42-104.41-23.43-18.89-5.56-33.16-18.34-44.02-34.32-3.53,11.92-9.36,23.03-16.28,33.28-.26,1.69,14.32,14.63,16.79,16.49,18.16,13.65,40.35,20.77,63.01,21.96,6.93.36,22.23-1.34,27.71.35,5.11,1.58,6.49,9.55,2.71,12.93-.57.51-4.28,2.31-4.7,2.31h-20.66v117.74h88.86Z"/>
  <path d="M226.8,307.91c7.79-.35,16.1,2.3,22.49,6.69,27.03-17.79,61.05,2.74,58.74,34.85-1.7,23.6-26.89,51.4-47.05,62.09-6.72,3.56-9.6,5.58-17.1,2.8-20.04-7.43-47.27-36.99-51.8-58.12-5.12-23.84,9.63-47.18,34.72-48.31ZM227.58,323.47c-13.44.52-21.87,12.29-20.89,25.15,1.28,16.82,22.65,40.12,36.88,48.1,6.83,3.83,7.3,2.98,13.87-1.2,14.13-8.99,34.44-30.88,35.01-48.41.6-18.6-18.03-29.69-33.81-19.79-4.85,3.04-6.24,7.94-13.54,3.93-6.41-3.52-8-8.14-17.52-7.77Z"/>
  <path d="M247.78,70.82c5.05-.97,8.97,2.15,9.57,7.22.64,5.36.73,22.87-.07,28.04-1.43,9.26-14.34,9.39-15.56-.71-.65-5.37-.73-22.85.07-28.04.48-3.12,2.83-5.91,5.99-6.51Z"/>
  <path d="M293.75,83.3c5.64-1.27,11.03,3.16,9.85,9.01-1.51,7.47-11.84,19-14.73,26.66-6.8,6.39-15.64,1.55-13.44-7.99.42-1.83,11.26-20.19,13.07-22.79,1.36-1.96,2.69-4.31,5.25-4.89Z"/>
  <path d="M201,83.28c2.74-.6,5.63.24,7.66,2.15,5.2,4.92,9.33,18.6,14.55,24.43,3.99,8.48-5.59,15.99-12.28,9.95-1.78-1.61-10.53-17.32-12.19-20.56-1.13-2.2-3.54-6.23-3.51-8.57.04-2.99,2.78-6.75,5.77-7.4Z"/>
</svg>